<svg id="Layer_1" data-name="Layer 1" xmlns="http://www.w3.org/2000/svg" viewBox="0 0 472.79 112.43"><defs><style>.cls-1,.cls-2,.cls-3{fill:#fcfcfc;}.cls-2{opacity:0.6;}.cls-3{opacity:0.8;}</style></defs><title>logo-white</title><path class="cls-1" d="M180.57,81.05a15,15,0,0,1-6.5,1.13,16.76,16.76,0,0,1-3.47-.28,1.53,1.53,0,0,1-1.41-1.82V57.54c0-1,.24-1.53,1.66-1.78a30.81,30.81,0,0,1,3.68-.24c3.43,0,8.36,1.05,8.36,6.06a6.13,6.13,0,0,1-4.69,5.94s6.5,0.61,6.5,7A6.81,6.81,0,0,1,180.57,81.05Zm-8.85-14.46h1.66c1.37,0,3.56,0,5.17-1.29a4.1,4.1,0,0,0,1.62-3.35c0-3.19-2.87-4.28-5.94-4.28a24.42,24.42,0,0,0-2.51.16v8.77Zm0,13.29a14.36,14.36,0,0,0,2.42.16c5.45,0,7.84-2,7.84-5.41a5.11,5.11,0,0,0-2.75-4.77,12.41,12.41,0,0,0-6.14-1.13h-1.37V79.88Z" transform="translate(-11.77 -12.62)"/><path class="cls-1" d="M206.5,72.37h-9.82l-3.27,8.56a1.46,1.46,0,0,1-1.53,1.25c-0.81,0-1.13-.32-1.13-0.77a2.83,2.83,0,0,1,.24-0.93l9.29-23.59c0.32-.85.69-1.41,1.53-1.41S203,56,203.34,56.94l9,23.55a2.76,2.76,0,0,1,.2.89c0,0.49-.36.81-1.21,0.81a1.52,1.52,0,0,1-1.58-1.25Zm-9-2.22h8.16l-4-10.7Z" transform="translate(-11.77 -12.62)"/><path class="cls-1" d="M232.54,79.68a1.62,1.62,0,0,1,1,.2,1.27,1.27,0,0,1,0,1.86,1.63,1.63,0,0,1-1,.2H221.79a1.05,1.05,0,0,1-1.25-1.25V57a1.77,1.77,0,0,1,.2-1.05,1.67,1.67,0,0,1,2.18,0,1.75,1.75,0,0,1,.2,1.05v22.7h9.41Z" transform="translate(-11.77 -12.62)"/><path class="cls-1" d="M253.21,81.05a15,15,0,0,1-6.5,1.13,16.76,16.76,0,0,1-3.47-.28,1.53,1.53,0,0,1-1.41-1.82V57.54c0-1,.24-1.53,1.66-1.78a30.81,30.81,0,0,1,3.68-.24c3.43,0,8.36,1.05,8.36,6.06a6.13,6.13,0,0,1-4.69,5.94s6.5,0.61,6.5,7A6.81,6.81,0,0,1,253.21,81.05Zm-8.85-14.46H246c1.37,0,3.56,0,5.17-1.29a4.1,4.1,0,0,0,1.62-3.35c0-3.19-2.87-4.28-5.94-4.28a24.42,24.42,0,0,0-2.51.16v8.77Zm0,13.29a14.34,14.34,0,0,0,2.42.16c5.45,0,7.84-2,7.84-5.41a5.11,5.11,0,0,0-2.75-4.77,12.41,12.41,0,0,0-6.14-1.13h-1.37V79.88Z" transform="translate(-11.77 -12.62)"/><path class="cls-1" d="M277.63,55.12c8.2,0,13.25,5.57,13.25,13.7s-5.17,13.73-13.41,13.73S264.22,77,264.22,68.85,269.39,55.12,277.63,55.12Zm0,25.21c6.42,0,10.58-4.2,10.58-11.47s-4.24-11.51-10.67-11.51-10.58,4.2-10.58,11.47S271.17,80.33,277.59,80.33Z" transform="translate(-11.77 -12.62)"/><path class="cls-1" d="M312.16,72.37h-9.82l-3.27,8.56a1.46,1.46,0,0,1-1.53,1.25c-0.81,0-1.13-.32-1.13-0.77a2.83,2.83,0,0,1,.24-0.93l9.29-23.59c0.32-.85.69-1.41,1.53-1.41S308.68,56,309,56.94l9,23.55a2.76,2.76,0,0,1,.2.89c0,0.49-.36.81-1.21,0.81a1.52,1.52,0,0,1-1.58-1.25Zm-9-2.22h8.16l-4-10.7Z" transform="translate(-11.77 -12.62)"/><path class="cls-1" d="M343.93,71.84c-1.05,0-1.82-.08-1.82-0.08v9a1.75,1.75,0,0,1-.2,1.05,1.67,1.67,0,0,1-2.18,0,1.77,1.77,0,0,1-.2-1.05v-23c0-1,0-1.49,1.17-1.82a17.29,17.29,0,0,1,3.8-.36,12.26,12.26,0,0,1,7.15,1.82,7.32,7.32,0,0,1,3.15,6.3C354.79,69.78,349.3,71.84,343.93,71.84Zm-1.82-2.26s0.73,0.08,1.7.08c3.92,0,8.28-1.17,8.28-6,0-4.08-3.27-6-7.6-6a14,14,0,0,0-2.38.2V69.58Z" transform="translate(-11.77 -12.62)"/><path class="cls-1" d="M373.77,72.37H364l-3.27,8.56a1.46,1.46,0,0,1-1.53,1.25c-0.81,0-1.13-.32-1.13-0.77a2.83,2.83,0,0,1,.24-0.93l9.29-23.59c0.32-.85.69-1.41,1.53-1.41s1.21,0.56,1.53,1.45l9,23.55a2.76,2.76,0,0,1,.2.89c0,0.49-.36.81-1.21,0.81A1.52,1.52,0,0,1,377,80.93Zm-9-2.22H373l-4-10.7Z" transform="translate(-11.77 -12.62)"/><path class="cls-1" d="M398.6,80.17a11.57,11.57,0,0,0,4.52-.93c1.78-.73,2.42-1.49,3-1.49a1.16,1.16,0,0,1,1,1.21c0,0.53-.36,1-1.25,1.53a13.71,13.71,0,0,1-7.31,1.94c-6.75,0-13.25-4.32-13.25-13.77s6.46-13.45,13-13.45A14.26,14.26,0,0,1,405.63,57c1,0.61,1.53,1.13,1.53,1.66A1.31,1.31,0,0,1,406.07,60c-0.61,0-1.33-.81-3-1.53a12,12,0,0,0-4.81-1c-5.09,0-10.22,3.11-10.22,11.07C388.05,76.77,393.55,80.17,398.6,80.17Z" transform="translate(-11.77 -12.62)"/><path class="cls-1" d="M418.58,80.73a1.75,1.75,0,0,1-.2,1.05,1.67,1.67,0,0,1-2.18,0,1.77,1.77,0,0,1-.2-1.05V57a1.77,1.77,0,0,1,.2-1.05,1.67,1.67,0,0,1,2.18,0,1.75,1.75,0,0,1,.2,1.05V80.73Z" transform="translate(-11.77 -12.62)"/><path class="cls-1" d="M432.14,80.73a1.75,1.75,0,0,1-.2,1.05,1.67,1.67,0,0,1-2.18,0,1.77,1.77,0,0,1-.2-1.05V57a1.06,1.06,0,0,1,1.25-1.17h10.54a1.63,1.63,0,0,1,1,.2,1.27,1.27,0,0,1,0,1.86,1.63,1.63,0,0,1-1,.2h-9.21v9.09h7.92a1.63,1.63,0,0,1,1,.2,1.27,1.27,0,0,1,0,1.86,1.63,1.63,0,0,1-1,.2h-7.92V80.73Z" transform="translate(-11.77 -12.62)"/><path class="cls-1" d="M453.87,80.73a1.75,1.75,0,0,1-.2,1.05,1.67,1.67,0,0,1-2.18,0,1.77,1.77,0,0,1-.2-1.05V57a1.77,1.77,0,0,1,.2-1.05,1.67,1.67,0,0,1,2.18,0,1.75,1.75,0,0,1,.2,1.05V80.73Z" transform="translate(-11.77 -12.62)"/><path class="cls-1" d="M476,80.17a11.59,11.59,0,0,0,4.53-.93c1.78-.73,2.42-1.49,3-1.49a1.16,1.16,0,0,1,1,1.21c0,0.53-.36,1-1.25,1.53A13.71,13.71,0,0,1,476,82.43c-6.75,0-13.25-4.32-13.25-13.77s6.46-13.45,13-13.45A14.27,14.27,0,0,1,483,57c1,0.61,1.53,1.13,1.53,1.66A1.31,1.31,0,0,1,483.47,60c-0.61,0-1.33-.81-3-1.53a12,12,0,0,0-4.81-1c-5.09,0-10.22,3.11-10.22,11.07C465.45,76.77,470.95,80.17,476,80.17Z" transform="translate(-11.77 -12.62)"/><path class="cls-1" d="M120.84,98.09c-2.51,3.49,15.21-18.41,8.24-46.72-6.24-25.33-18.49-8.11-39.31,4h0a46.69,46.69,0,0,1,8.58,1.07c5.94,1.51,8.36,4.4,9.57,4.92s11,1.73,12.74,5.84c0,0-8.67-2.22-12-1.38S94.15,70.59,89,71.72c-0.67.15-1.34,0.27-2,.4C106.18,83.56,127.84,88.37,120.84,98.09Z" transform="translate(-11.77 -12.62)"/><path class="cls-2" d="M26.43,62.21C36.87,62.68,58.5,77.47,87,72.12a70.71,70.71,0,0,1-14.46-11h0C52.48,40.55,62.1.92,38.88,15.94A59.35,59.35,0,0,0,12.16,72.57C11.87,63.54,17.54,61.82,26.43,62.21Z" transform="translate(-11.77 -12.62)"/><path class="cls-3" d="M93.41,120.74c0.55-.22,1.1-0.45,1.65-0.69l0.57-.25a59.14,59.14,0,0,0,16.89-11.56,75.23,75.23,0,0,0,8.32-10.14c7-9.72-14.66-14.54-33.84-26-28.51,5.35-50.13-9.44-60.57-9.9-8.9-.4-14.57,1.32-14.27,10.35a59,59,0,0,0,15.95,34.1c0.26,0.27.51,0.54,0.77,0.81L29.45,108a59.71,59.71,0,0,0,56,15.29c1.93-.47,3.82-1,5.66-1.69l0.51-.18C92.19,121.22,92.8,121,93.41,120.74Z" transform="translate(-11.77 -12.62)"/></svg>