<svg id="Layer_1" data-name="Layer 1" xmlns="http://www.w3.org/2000/svg" viewBox="0 0 473.04 112.94"><defs><style>.cls-1{fill:#333b63;}.cls-2{fill:#4d91a7;}.cls-3{fill:#37516f;}</style></defs><title>logo-color</title><path class="cls-1" d="M180.57,81.05a15,15,0,0,1-6.5,1.13,16.76,16.76,0,0,1-3.47-.28,1.53,1.53,0,0,1-1.41-1.82V57.54c0-1,.24-1.53,1.66-1.78a30.81,30.81,0,0,1,3.68-.24c3.43,0,8.36,1.05,8.36,6.06a6.13,6.13,0,0,1-4.69,5.94s6.5,0.61,6.5,7A6.81,6.81,0,0,1,180.57,81.05Zm-8.85-14.46h1.66c1.37,0,3.56,0,5.17-1.29a4.1,4.1,0,0,0,1.62-3.35c0-3.19-2.87-4.28-5.94-4.28a24.42,24.42,0,0,0-2.51.16v8.77Zm0,13.29a14.36,14.36,0,0,0,2.42.16c5.45,0,7.84-2,7.84-5.41a5.11,5.11,0,0,0-2.75-4.77,12.41,12.41,0,0,0-6.14-1.13h-1.37V79.88Z" transform="translate(-11.52 -12.37)"/><path class="cls-1" d="M206.5,72.37h-9.82l-3.27,8.56a1.46,1.46,0,0,1-1.53,1.25c-0.81,0-1.13-.32-1.13-0.77a2.83,2.83,0,0,1,.24-0.93l9.29-23.59c0.32-.85.69-1.41,1.53-1.41S203,56,203.34,56.94l9,23.55a2.76,2.76,0,0,1,.2.89c0,0.49-.36.81-1.21,0.81a1.52,1.52,0,0,1-1.58-1.25Zm-9-2.22h8.16l-4-10.7Z" transform="translate(-11.52 -12.37)"/><path class="cls-1" d="M232.54,79.68a1.62,1.62,0,0,1,1,.2,1.27,1.27,0,0,1,0,1.86,1.63,1.63,0,0,1-1,.2H221.79a1.05,1.05,0,0,1-1.25-1.25V57a1.77,1.77,0,0,1,.2-1.05,1.67,1.67,0,0,1,2.18,0,1.75,1.75,0,0,1,.2,1.05v22.7h9.41Z" transform="translate(-11.52 -12.37)"/><path class="cls-1" d="M253.21,81.05a15,15,0,0,1-6.5,1.13,16.76,16.76,0,0,1-3.47-.28,1.53,1.53,0,0,1-1.41-1.82V57.54c0-1,.24-1.53,1.66-1.78a30.81,30.81,0,0,1,3.68-.24c3.43,0,8.36,1.05,8.36,6.06a6.13,6.13,0,0,1-4.69,5.94s6.5,0.61,6.5,7A6.81,6.81,0,0,1,253.21,81.05Zm-8.85-14.46H246c1.37,0,3.56,0,5.17-1.29a4.1,4.1,0,0,0,1.62-3.35c0-3.19-2.87-4.28-5.94-4.28a24.42,24.42,0,0,0-2.51.16v8.77Zm0,13.29a14.34,14.34,0,0,0,2.42.16c5.45,0,7.84-2,7.84-5.41a5.11,5.11,0,0,0-2.75-4.77,12.41,12.41,0,0,0-6.14-1.13h-1.37V79.88Z" transform="translate(-11.52 -12.37)"/><path class="cls-1" d="M277.63,55.12c8.2,0,13.25,5.57,13.25,13.7s-5.17,13.73-13.41,13.73S264.22,77,264.22,68.85,269.39,55.12,277.63,55.12Zm0,25.21c6.42,0,10.58-4.2,10.58-11.47s-4.24-11.51-10.67-11.51-10.58,4.2-10.58,11.47S271.17,80.33,277.59,80.33Z" transform="translate(-11.52 -12.37)"/><path class="cls-1" d="M312.16,72.37h-9.82l-3.27,8.56a1.46,1.46,0,0,1-1.53,1.25c-0.81,0-1.13-.32-1.13-0.77a2.83,2.83,0,0,1,.24-0.93l9.29-23.59c0.32-.85.69-1.41,1.53-1.41S308.68,56,309,56.94l9,23.55a2.76,2.76,0,0,1,.2.89c0,0.49-.36.81-1.21,0.81a1.52,1.52,0,0,1-1.58-1.25Zm-9-2.22h8.16l-4-10.7Z" transform="translate(-11.52 -12.37)"/><path class="cls-1" d="M343.93,71.84c-1.05,0-1.82-.08-1.82-0.08v9a1.75,1.75,0,0,1-.2,1.05,1.67,1.67,0,0,1-2.18,0,1.77,1.77,0,0,1-.2-1.05v-23c0-1,0-1.49,1.17-1.82a17.29,17.29,0,0,1,3.8-.36,12.26,12.26,0,0,1,7.15,1.82,7.32,7.32,0,0,1,3.15,6.3C354.79,69.78,349.3,71.84,343.93,71.84Zm-1.82-2.26s0.73,0.08,1.7.08c3.92,0,8.28-1.17,8.28-6,0-4.08-3.27-6-7.6-6a14,14,0,0,0-2.38.2V69.58Z" transform="translate(-11.52 -12.37)"/><path class="cls-1" d="M373.77,72.37H364l-3.27,8.56a1.46,1.46,0,0,1-1.53,1.25c-0.81,0-1.13-.32-1.13-0.77a2.83,2.83,0,0,1,.24-0.93l9.29-23.59c0.32-.85.69-1.41,1.53-1.41s1.21,0.56,1.53,1.45l9,23.55a2.76,2.76,0,0,1,.2.89c0,0.49-.36.81-1.21,0.81A1.52,1.52,0,0,1,377,80.93Zm-9-2.22H373l-4-10.7Z" transform="translate(-11.52 -12.37)"/><path class="cls-1" d="M398.6,80.17a11.57,11.57,0,0,0,4.52-.93c1.78-.73,2.42-1.49,3-1.49a1.16,1.16,0,0,1,1,1.21c0,0.53-.36,1-1.25,1.53a13.71,13.71,0,0,1-7.31,1.94c-6.75,0-13.25-4.32-13.25-13.77s6.46-13.45,13-13.45A14.26,14.26,0,0,1,405.63,57c1,0.61,1.53,1.13,1.53,1.66A1.31,1.31,0,0,1,406.07,60c-0.61,0-1.33-.81-3-1.53a12,12,0,0,0-4.81-1c-5.09,0-10.22,3.11-10.22,11.07C388.05,76.77,393.55,80.17,398.6,80.17Z" transform="translate(-11.52 -12.37)"/><path class="cls-1" d="M418.58,80.73a1.75,1.75,0,0,1-.2,1.05,1.67,1.67,0,0,1-2.18,0,1.77,1.77,0,0,1-.2-1.05V57a1.77,1.77,0,0,1,.2-1.05,1.67,1.67,0,0,1,2.18,0,1.75,1.75,0,0,1,.2,1.05V80.73Z" transform="translate(-11.52 -12.37)"/><path class="cls-1" d="M432.14,80.73a1.75,1.75,0,0,1-.2,1.05,1.67,1.67,0,0,1-2.18,0,1.77,1.77,0,0,1-.2-1.05V57a1.06,1.06,0,0,1,1.25-1.17h10.54a1.63,1.63,0,0,1,1,.2,1.27,1.27,0,0,1,0,1.86,1.63,1.63,0,0,1-1,.2h-9.21v9.09h7.92a1.63,1.63,0,0,1,1,.2,1.27,1.27,0,0,1,0,1.86,1.63,1.63,0,0,1-1,.2h-7.92V80.73Z" transform="translate(-11.52 -12.37)"/><path class="cls-1" d="M453.87,80.73a1.75,1.75,0,0,1-.2,1.05,1.67,1.67,0,0,1-2.18,0,1.77,1.77,0,0,1-.2-1.05V57a1.77,1.77,0,0,1,.2-1.05,1.67,1.67,0,0,1,2.18,0,1.75,1.75,0,0,1,.2,1.05V80.73Z" transform="translate(-11.52 -12.37)"/><path class="cls-1" d="M476,80.17a11.59,11.59,0,0,0,4.53-.93c1.78-.73,2.42-1.49,3-1.49a1.16,1.16,0,0,1,1,1.21c0,0.53-.36,1-1.25,1.53A13.71,13.71,0,0,1,476,82.43c-6.75,0-13.25-4.32-13.25-13.77s6.46-13.45,13-13.45A14.27,14.27,0,0,1,483,57c1,0.61,1.53,1.13,1.53,1.66A1.31,1.31,0,0,1,483.47,60c-0.61,0-1.33-.81-3-1.53a12,12,0,0,0-4.81-1c-5.09,0-10.22,3.11-10.22,11.07C465.45,76.77,470.95,80.17,476,80.17Z" transform="translate(-11.52 -12.37)"/><path class="cls-2" d="M129.32,51.31c-1.85-7.5-4.27-11.57-7.62-12.83-4.88-1.83-11.24,2.62-19.28,8.25-3.79,2.66-8.1,5.67-12.78,8.39a0.25,0.25,0,0,0,.11.47,45.3,45.3,0,0,1,8.53,1.06,21.54,21.54,0,0,1,8.2,4,7.51,7.51,0,0,0,1.33.88,14,14,0,0,0,1.72.44c2.93,0.65,8.86,2,10.63,4.79-2-.47-8.67-2-11.57-1.24-1.3.33-3.79,1.14-6.68,2.07-4.39,1.42-9.85,3.18-13,3.87-0.64.14-1.28,0.26-1.92,0.38H87a0.25,0.25,0,0,0-.08.46c5.69,3.4,11.65,6.23,16.91,8.74,9.45,4.5,16.91,8,18,12.34a5.32,5.32,0,0,1-1.16,4.54c-0.3.42-.37,0.52-0.23,0.68a0.25,0.25,0,0,0,.19.09l0.12,0,0.1-.12h0l0.22-.33a9.55,9.55,0,0,0,.54-0.84C124.71,92.47,134.86,73.79,129.32,51.31Z" transform="translate(-11.52 -12.37)"/><path class="cls-1" d="M87.13,71.9a69.94,69.94,0,0,1-14.41-11C64.26,52.25,61.07,40,58.51,30.23c-2.29-8.75-4.09-15.66-8.65-17.43-2.76-1.07-6.4-.12-11.11,2.93a60,60,0,0,0-9.29,7.43A59.23,59.23,0,0,0,11.91,72.6l0.5,0c-0.11-3.42.63-5.87,2.27-7.49,2.1-2.07,5.72-2.87,11.74-2.61,3.24,0.14,7.52,1.67,12.94,3.6,9.19,3.27,21,7.48,35,7.48A68.43,68.43,0,0,0,87,72.36l0.65-.12Z" transform="translate(-11.52 -12.37)"/><path class="cls-3" d="M122.28,93.28c-1.16-4.52-8.72-8.11-18.28-12.67-5.25-2.5-11.2-5.33-16.87-8.71l-0.08,0-0.09,0c-19.49,3.66-35.64-2.09-47.43-6.28-5.46-1.94-9.77-3.48-13.09-3.62-6.17-.28-9.91.57-12.11,2.75-1.75,1.72-2.54,4.3-2.42,7.88a59,59,0,0,0,16,34.25l0.28,0.3,0.49,0.51L29,108l0.23,0.23a59.68,59.68,0,0,0,41.78,17.1,60.5,60.5,0,0,0,14.41-1.75c1.89-.46,3.8-1,5.68-1.7l0.51-.17a6.31,6.31,0,0,1,1.85-.69h0a4.85,4.85,0,0,0,1.66-.71l0.57-.26a59.35,59.35,0,0,0,17-11.61A75.28,75.28,0,0,0,121,98.24,5.79,5.79,0,0,0,122.28,93.28Z" transform="translate(-11.52 -12.37)"/></svg>