<?xml version="1.0" encoding="utf-8"?>
<!-- Generator: Adobe Illustrator 19.2.1, SVG Export Plug-In . SVG Version: 6.00 Build 0)  -->
<svg version="1.1" id="Layer_1" xmlns="http://www.w3.org/2000/svg" xmlns:xlink="http://www.w3.org/1999/xlink" x="0px" y="0px"
	 viewBox="0 0 600 412" style="enable-background:new 0 0 600 412;" xml:space="preserve">
<style type="text/css">
	.st0{fill:#2D2D2D;}
	.st1{fill:#292929;}
</style>
<g>
	<path class="st0" d="M0,328.7v-26.3h5.5c2.6,0,4.7,0.3,6.3,0.8c1.6,0.5,3.1,1.4,4.5,2.6c2.7,2.5,4.1,5.7,4.1,9.8
		c0,4-1.4,7.3-4.2,9.8c-1.4,1.3-2.9,2.1-4.5,2.6c-1.5,0.5-3.5,0.7-6.2,0.7L0,328.7L0,328.7z M4,325h1.8c1.8,0,3.3-0.2,4.4-0.6
		c1.2-0.4,2.2-1,3.2-1.9c2-1.8,2.9-4.1,2.9-7c0-2.9-1-5.2-2.9-7c-1.7-1.6-4.3-2.4-7.7-2.4H4C4,306.1,4,325,4,325z"/>
	<path class="st0" d="M49.9,322.3H38.7l-2.9,6.4h-4.3l13-28l12.6,28h-4.3L49.9,322.3z M48.3,318.6l-3.9-8.9l-4.1,8.9H48.3z"/>
	<path class="st0" d="M73.8,317.3l-8.6-14.9h4.6l6,10.5l6-10.5h4.6l-8.6,14.9v11.4h-4V317.3z"/>
	<path class="st0" d="M99.9,328.7v-28.1l19.2,20.1v-18.3h4v27.9l-19.2-20v18.4L99.9,328.7L99.9,328.7z"/>
	<path class="st0" d="M154.3,306.1h-10.5v6.3H154v3.7h-10.2v8.8h10.5v3.7h-14.5v-26.3h14.5V306.1z"/>
	<path class="st0" d="M206.6,322.3h-11.3l-2.9,6.4h-4.3l13-28l12.6,28h-4.3L206.6,322.3z M205,318.6l-3.9-8.9l-4.1,8.9H205z"/>
	<path class="st0" d="M236.4,317.5l8.1,11.2h-4.9l-7.5-10.8h-0.7v10.8h-4v-26.3h4.7c3.5,0,6,0.7,7.5,2c1.7,1.5,2.6,3.4,2.6,5.8
		c0,1.9-0.5,3.5-1.6,4.8C239.6,316.2,238.1,317.1,236.4,317.5z M231.5,314.5h1.3c3.8,0,5.6-1.4,5.6-4.3c0-2.7-1.8-4-5.5-4h-1.4
		L231.5,314.5L231.5,314.5z"/>
	<path class="st0" d="M267.8,317.5l8.1,11.2h-4.9l-7.5-10.8h-0.7v10.8h-4v-26.3h4.7c3.5,0,6,0.7,7.5,2c1.7,1.5,2.6,3.4,2.6,5.8
		c0,1.9-0.5,3.5-1.6,4.8C271,316.2,269.6,317.1,267.8,317.5z M262.9,314.5h1.3c3.8,0,5.6-1.4,5.6-4.3c0-2.7-1.8-4-5.5-4h-1.4
		L262.9,314.5L262.9,314.5z"/>
	<path class="st0" d="M288.5,315.4c0-3.7,1.4-6.9,4.1-9.5c2.7-2.7,6-4,9.7-4c3.7,0,7,1.3,9.6,4c2.7,2.7,4,5.9,4,9.7
		c0,3.8-1.4,7-4.1,9.6c-2.7,2.6-6,4-9.8,4c-3.4,0-6.4-1.2-9.2-3.5C290,323,288.5,319.6,288.5,315.4z M292.5,315.5
		c0,2.9,1,5.3,2.9,7.2c1.9,1.9,4.2,2.8,6.7,2.8c2.8,0,5.1-1,7-2.9c1.9-1.9,2.8-4.3,2.8-7.1c0-2.8-0.9-5.2-2.8-7
		c-1.9-1.9-4.2-2.9-6.9-2.9c-2.7,0-5,1-6.9,2.9C293.4,310.4,292.5,312.7,292.5,315.5z"/>
	<path class="st0" d="M331.4,328.7v-28.1l19.2,20.1v-18.3h4v27.9l-19.2-20v18.4L331.4,328.7L331.4,328.7z"/>
	<path class="st0" d="M393.9,302.4l6.9,17.6l7.2-18.9l6.9,18.9l7.3-17.6h4.3l-11.8,28l-6.8-18.6l-7.1,18.7l-11.2-28L393.9,302.4
		L393.9,302.4z"/>
	<path class="st0" d="M451.9,322.3h-11.3l-2.9,6.4h-4.3l13-28l12.6,28h-4.3L451.9,322.3z M450.3,318.6l-3.9-8.9l-4.1,8.9H450.3z"/>
	<path class="st0" d="M478.5,306.1v22.6h-4v-22.6h-6v-3.7h16.1v3.7H478.5z"/>
	<path class="st0" d="M512.6,322.3h-11.3l-2.9,6.4h-4.3l13-28l12.6,28h-4.3L512.6,322.3z M510.9,318.6l-3.9-8.9l-4.1,8.9H510.9z"/>
	<path class="st0" d="M537.4,302.4v26.3h-4v-26.3H537.4z"/>
	<path class="st1" d="M318.4,250.7h4.8L393.5,9.6l70.7,241.1h4.8L542.2,1.4L537.4,0l-70.7,241.1L395.9,0l-4.8,0l-70.3,241.1
		l-18.3-62.4L250.3,0l-4.8,0l-74.4,249.3l4.8,1.4l0-0.1v0.1h104.9v-0.1l18.7-64.3l0.2,0.8 M277.1,245.8h-99.7L247.9,9.5L297,177.5
		L277.1,245.8z"/>
	<path class="st1" d="M51.3,245.9c-11.9,0-23.8-1.7-35.3-5.2l-2.4-0.7L84.1,4.2L86.5,5c31.5,9.4,57.4,30.5,73,59.5
		c15.6,28.9,19,62.2,9.6,93.7C153.6,209.8,105.2,245.9,51.3,245.9 M19.8,236.6c10.3,2.9,20.9,4.3,31.5,4.3
		c51.7,0,98.2-34.6,113-84.3c9-30.2,5.8-62.1-9.2-89.9c-14.6-27-38.5-46.9-67.7-56.3L19.8,236.6z"/>
</g>
</svg>
